<?xml version="1.0" standalone="no"?>
<!DOCTYPE svg PUBLIC "-//W3C//DTD SVG 20010904//EN"
 "http://www.w3.org/TR/2001/REC-SVG-20010904/DTD/svg10.dtd">
<svg version="1.0" xmlns="http://www.w3.org/2000/svg"
 width="400.000000pt" height="400.000000pt" viewBox="0 0 400.000000 400.000000"
 preserveAspectRatio="xMidYMid meet">

<g transform="translate(0.000000,400.000000) scale(0.100000,-0.100000)"
fill="#000000" stroke="none">
<path d="M1838 3989 c-462 -36 -915 -245 -1248 -579 -779 -778 -779 -2042 0
-2820 778 -779 2042 -779 2820 0 779 778 779 2042 0 2820 -341 341 -782 543
-1270 580 -147 11 -147 11 -302 -1z m160 -1396 c11 -10 39 -66 63 -125 40
-101 45 -108 71 -108 47 0 68 -31 68 -100 0 -58 15 -84 22 -37 2 18 10 23 45
25 35 3 44 -1 56 -20 22 -35 120 -366 113 -383 -5 -13 -59 -15 -401 -15 -348
0 -395 2 -395 15 0 9 7 18 15 21 13 5 12 10 -5 31 -11 14 -20 34 -20 44 0 11
-5 19 -12 19 -6 0 -20 7 -30 17 -16 14 -18 34 -18 183 0 154 2 168 20 185 24
22 27 77 4 95 -24 21 -14 63 18 74 24 8 32 6 58 -19 26 -25 30 -36 30 -82 0
-29 4 -53 9 -53 5 0 11 50 13 111 4 140 3 139 149 139 87 0 110 -3 127 -17z
m-389 -736 c13 -16 5 -27 -21 -27 -18 0 -25 20 -11 33 10 10 19 8 32 -6z
m-369 -207 l0 -40 40 0 40 0 0 40 c0 33 3 40 20 40 19 0 20 -7 20 -95 0 -88
-1 -95 -20 -95 -17 0 -20 7 -20 40 l0 40 -40 0 -40 0 0 -40 c0 -33 -3 -40 -20
-40 -19 0 -20 7 -20 95 0 88 1 95 20 95 17 0 20 -7 20 -40z m220 -21 c0 -68
12 -99 38 -99 32 0 42 22 42 92 0 61 2 68 20 68 18 0 20 -7 20 -73 0 -80 -14
-111 -54 -121 -27 -7 -76 8 -88 27 -4 7 -8 47 -8 90 0 62 3 77 15 77 12 0 15
-13 15 -61z m228 19 l19 -43 22 43 c14 28 28 42 41 42 19 0 19 -3 -10 -60 -16
-33 -30 -75 -30 -95 0 -28 -4 -35 -20 -35 -16 0 -20 7 -20 30 0 17 -13 57 -30
90 -36 70 -35 70 -10 70 13 0 25 -13 38 -42z m384 25 c42 -38 8 -103 -54 -103
-25 0 -28 -3 -28 -35 0 -24 -5 -35 -15 -35 -12 0 -15 17 -15 95 l0 95 47 0
c29 0 53 -6 65 -17z m118 -23 l0 -40 40 0 40 0 0 40 c0 33 3 40 20 40 19 0 20
-7 20 -95 0 -88 -1 -95 -20 -95 -17 0 -20 7 -20 40 l0 40 -40 0 -40 0 0 -40
c0 -33 -3 -40 -20 -40 -19 0 -20 7 -20 95 0 88 1 95 20 95 17 0 20 -7 20 -40z
m316 -57 c32 -89 33 -93 13 -93 -11 0 -22 7 -25 15 -4 10 -20 15 -44 15 -24 0
-40 -5 -44 -15 -3 -8 -14 -15 -25 -15 -20 0 -19 3 10 83 16 45 32 88 34 95 3
7 15 12 26 10 18 -2 29 -21 55 -95z m161 30 l30 -68 32 68 c23 50 36 67 51 67
19 0 20 -7 20 -95 0 -88 -1 -95 -20 -95 -17 0 -20 7 -21 48 l-1 47 -21 -47
c-12 -27 -29 -48 -37 -48 -9 0 -27 23 -42 53 l-27 52 0 -52 c-1 -40 -5 -53
-16 -53 -12 0 -15 17 -15 95 0 85 2 95 18 95 13 0 27 -20 49 -67z m-1458 -260
c15 -18 19 -33 14 -47 -4 -12 -7 -31 -6 -43 1 -22 -16 -31 -31 -16 -3 4 -17 8
-29 10 -26 4 -57 38 -57 64 0 27 35 59 64 59 15 0 33 -11 45 -27z m148 -33
c17 -47 19 -60 8 -60 -8 0 -17 5 -20 10 -3 6 -15 10 -26 10 -10 0 -19 -4 -19
-10 0 -5 -7 -10 -15 -10 -18 0 -19 8 -1 51 7 19 16 42 19 52 12 33 32 17 54
-43z m451 44 c15 -10 22 -25 22 -48 0 -42 -15 -56 -62 -56 l-38 0 0 60 c0 59
0 60 28 60 15 0 38 -7 50 -16z m142 1 c0 -8 -9 -15 -20 -15 -11 0 -20 -4 -20
-10 0 -5 9 -10 20 -10 11 0 20 -4 20 -10 0 -5 -9 -10 -20 -10 -11 0 -20 -7
-20 -15 0 -8 9 -15 20 -15 11 0 20 -4 20 -10 0 -5 -16 -10 -35 -10 l-35 0 0
60 0 60 35 0 c24 0 35 -5 35 -15z m81 -12 c5 -16 12 -35 15 -43 4 -10 11 0 21
28 8 23 21 42 29 42 18 0 18 2 -7 -64 -28 -71 -48 -73 -72 -7 -9 27 -17 54
-17 60 0 22 21 11 31 -16z m189 12 c0 -8 -9 -15 -20 -15 -11 0 -20 -4 -20 -10
0 -5 9 -10 20 -10 11 0 20 -4 20 -10 0 -5 -9 -10 -20 -10 -11 0 -20 -7 -20
-15 0 -8 9 -15 20 -15 11 0 20 -4 20 -10 0 -5 -16 -10 -35 -10 l-35 0 0 60 0
60 35 0 c24 0 35 -5 35 -15z m80 -35 c0 -43 3 -50 20 -50 11 0 20 -4 20 -10 0
-5 -13 -10 -30 -10 l-30 0 0 60 c0 33 4 60 10 60 6 0 10 -22 10 -50z m178 34
c34 -23 28 -84 -10 -102 -64 -30 -118 48 -68 98 24 24 48 25 78 4z m146 0 c28
-27 12 -64 -26 -64 -11 0 -18 -7 -18 -20 0 -11 -7 -20 -15 -20 -12 0 -15 13
-15 60 0 60 0 60 29 60 16 0 37 -7 45 -16z m126 1 c0 -8 -9 -15 -20 -15 -11 0
-20 -4 -20 -10 0 -5 9 -10 20 -10 11 0 20 -4 20 -10 0 -5 -9 -10 -20 -10 -11
0 -20 -7 -20 -15 0 -8 9 -15 20 -15 11 0 20 -4 20 -10 0 -5 -16 -10 -35 -10
l-35 0 0 60 0 60 35 0 c24 0 35 -5 35 -15z m134 -7 c8 -13 7 -23 -2 -39 -10
-15 -11 -24 -3 -32 15 -15 14 -27 -3 -27 -7 0 -21 10 -29 23 l-16 22 0 -22
c-1 -13 -5 -23 -11 -23 -6 0 -10 27 -10 61 l0 60 31 -3 c18 -2 37 -11 43 -20z
m-1294 -38 c0 -5 -18 -10 -40 -10 -22 0 -40 5 -40 10 0 6 18 10 40 10 22 0 40
-4 40 -10z"/>
<path d="M1760 2465 c0 -130 18 -141 22 -12 l3 92 98 3 c135 4 124 22 -13 22
l-110 0 0 -105z"/>
<path d="M1820 2435 l0 -75 54 0 c52 0 55 1 58 27 4 38 27 41 34 4 8 -40 24
-40 24 0 0 38 24 35 28 -4 2 -19 9 -27 24 -27 15 0 18 4 14 18 -4 9 -17 43
-29 75 l-22 57 -92 0 -93 0 0 -75z"/>
<path d="M1620 2471 c0 -6 5 -13 10 -16 6 -3 10 -26 10 -51 0 -32 4 -44 15
-44 23 0 20 82 -3 103 -21 19 -32 22 -32 8z"/>
<path d="M1607 2313 c-14 -13 -7 -22 21 -25 16 -2 27 -9 27 -18 0 -9 -11 -16
-27 -18 -28 -3 -28 -4 -28 -78 l0 -74 36 0 c19 0 58 8 86 17 48 15 55 15 99 0
41 -15 201 -25 188 -12 -3 2 -39 11 -80 20 -41 8 -84 17 -96 20 -30 7 -56 48
-48 75 4 11 17 27 30 36 22 14 36 13 176 -15 84 -17 156 -31 161 -31 4 0 8 9
8 19 0 14 -8 21 -27 23 -37 4 -37 32 0 36 16 2 27 8 24 15 -4 13 -538 23 -550
10z"/>
<path d="M1823 2214 c-3 -8 -2 -19 3 -24 8 -7 358 -80 385 -80 5 0 9 11 9 24
0 22 -8 25 -182 60 -210 41 -207 41 -215 20z"/>
<path d="M2260 2044 l0 -174 71 0 c53 0 70 3 66 13 -2 6 -26 83 -52 169 -37
120 -52 158 -66 161 -18 5 -19 -4 -19 -169z"/>
<path d="M1714 2071 c-96 -58 -52 -201 63 -201 36 0 50 6 74 29 24 24 29 38
29 76 0 40 -5 52 -34 81 -40 40 -83 45 -132 15z m116 -48 c23 -30 22 -76 -3
-100 -44 -45 -127 -10 -127 53 0 71 86 103 130 47z"/>
<path d="M1745 2004 c-19 -20 -16 -43 8 -58 34 -22 73 27 47 59 -16 19 -35 19
-55 -1z"/>
<path d="M2038 2074 c-34 -18 -58 -62 -58 -105 0 -22 10 -41 34 -65 29 -29 41
-34 81 -34 38 0 52 5 76 29 24 24 29 38 29 76 0 40 -5 52 -34 81 -38 38 -81
44 -128 18z m111 -50 c26 -33 27 -65 4 -93 -45 -54 -133 -24 -133 45 0 71 86
103 129 48z"/>
<path d="M2066 2005 c-19 -20 -20 -26 -3 -49 26 -36 84 4 61 42 -15 23 -38 26
-58 7z"/>
<path d="M1600 2036 c0 -14 5 -28 11 -31 13 -9 15 -7 23 28 5 23 3 27 -14 27
-15 0 -20 -7 -20 -24z"/>
<path d="M1911 2030 c11 -30 39 -42 39 -16 0 8 3 21 6 30 5 12 -1 16 -24 16
-30 0 -31 -1 -21 -30z"/>
<path d="M1904 1915 l-21 -45 54 0 54 0 -20 26 c-12 15 -21 35 -21 45 0 34
-25 20 -46 -26z"/>
<path d="M2205 1880 c-3 -5 -1 -10 4 -10 6 0 11 5 11 10 0 6 -2 10 -4 10 -3 0
-8 -4 -11 -10z"/>
<path d="M1990 1630 c0 -28 3 -31 28 -28 21 2 27 8 27 28 0 20 -6 26 -27 28
-25 3 -28 0 -28 -28z"/>
<path d="M2440 1611 c0 -5 -3 -16 -6 -25 -4 -12 0 -16 16 -16 16 0 20 4 16 16
-3 9 -6 20 -6 25 0 5 -4 9 -10 9 -5 0 -10 -4 -10 -9z"/>
<path d="M1134 1345 c-14 -37 26 -69 53 -42 22 22 8 57 -23 57 -14 0 -27 -7
-30 -15z"/>
<path d="M1316 1331 c-4 -7 -5 -15 -2 -18 9 -9 19 4 14 18 -4 11 -6 11 -12 0z"/>
<path d="M1760 1325 c0 -24 5 -35 15 -35 21 0 35 32 24 53 -17 30 -39 20 -39
-18z"/>
<path d="M2414 1346 c-10 -25 0 -51 20 -54 27 -6 48 25 35 49 -12 22 -47 25
-55 5z"/>
<path d="M2580 1345 c0 -9 6 -12 15 -9 8 4 15 10 15 15 0 5 -7 9 -15 9 -8 0
-15 -7 -15 -15z"/>
<path d="M2830 1344 c0 -9 5 -14 12 -12 18 6 21 28 4 28 -9 0 -16 -7 -16 -16z"/>
</g>
</svg>
