<?xml version="1.0" standalone="no"?>
<!DOCTYPE svg PUBLIC "-//W3C//DTD SVG 20010904//EN"
 "http://www.w3.org/TR/2001/REC-SVG-20010904/DTD/svg10.dtd">
<svg version="1.0" xmlns="http://www.w3.org/2000/svg"
 width="400.000000pt" height="400.000000pt" viewBox="0 0 400.000000 400.000000"
 preserveAspectRatio="xMidYMid meet">

<g transform="translate(0.000000,400.000000) scale(0.100000,-0.100000)"
fill="#000000" stroke="none">
<path d="M1000 1385 l0 -125 25 0 c23 0 25 3 25 50 l0 50 45 0 45 0 0 -50 c0
-49 1 -50 30 -50 l30 0 0 125 0 125 -30 0 c-29 0 -30 -1 -30 -51 l0 -50 -42 3
-43 3 -3 48 c-3 42 -5 47 -28 47 l-24 0 0 -125z"/>
<path d="M1262 1409 c3 -96 4 -102 31 -125 21 -18 40 -24 75 -24 82 1 102 32
102 159 0 89 0 91 -24 91 -23 0 -24 -3 -27 -85 -5 -100 -20 -125 -66 -109 -28
9 -28 11 -31 102 l-3 92 -30 0 -31 0 4 -101z"/>
<path d="M1564 1446 c43 -60 46 -69 46 -125 l0 -61 30 0 30 0 0 65 c0 61 3 70
40 120 22 30 40 57 40 60 0 3 -13 5 -30 5 -24 0 -35 -8 -56 -41 l-26 -42 -27
41 c-22 35 -31 42 -59 42 l-34 0 46 -64z"/>
<path d="M1930 1385 l0 -125 30 0 c29 0 30 2 30 45 0 43 1 45 30 45 69 0 107
91 57 138 -19 18 -35 22 -85 22 l-62 0 0 -125z m108 73 c18 -18 14 -46 -7 -58
-33 -17 -41 -11 -41 30 0 32 4 40 18 40 10 0 23 -5 30 -12z"/>
<path d="M2150 1385 l0 -125 30 0 c29 0 30 1 30 50 l0 50 40 0 40 0 0 -50 c0
-49 1 -50 30 -50 l30 0 0 125 0 125 -30 0 c-29 0 -30 -1 -30 -50 l0 -50 -40 0
-40 0 0 50 c0 49 -1 50 -30 50 l-30 0 0 -125z"/>
<path d="M2458 1392 c-27 -64 -48 -120 -48 -125 0 -4 13 -7 29 -7 22 0 30 6
35 25 6 23 11 25 56 25 45 0 52 -3 60 -25 7 -19 17 -25 39 -25 l30 0 -52 125
c-47 114 -53 125 -77 125 -23 0 -29 -11 -72 -118z m101 -24 c1 -5 -12 -8 -29
-8 -19 0 -28 4 -25 13 2 6 10 26 16 42 l11 30 13 -35 c8 -19 14 -38 14 -42z"/>
<path d="M2716 1413 c-9 -54 -20 -110 -23 -125 -5 -26 -3 -28 25 -28 29 0 30
2 41 63 6 35 11 72 11 82 0 35 18 1 37 -70 19 -66 21 -70 49 -70 27 0 30 4 49
72 20 73 35 101 35 68 0 -10 5 -47 11 -82 11 -60 12 -63 40 -63 16 0 29 5 29
12 0 6 -10 63 -22 125 l-22 114 -35 -3 c-34 -3 -35 -4 -61 -88 l-26 -85 -24
88 -25 87 -36 0 -36 0 -17 -97z"/>
</g>
</svg>
