<?xml version="1.0" standalone="no"?>
<!DOCTYPE svg PUBLIC "-//W3C//DTD SVG 20010904//EN"
 "http://www.w3.org/TR/2001/REC-SVG-20010904/DTD/svg10.dtd">
<svg version="1.0" xmlns="http://www.w3.org/2000/svg"
 width="400.000000pt" height="400.000000pt" viewBox="0 0 400.000000 400.000000"
 preserveAspectRatio="xMidYMid meet">

<g transform="translate(0.000000,400.000000) scale(0.100000,-0.100000)"
fill="#000000" stroke="none">
<path d="M1840 3421 c0 -23 -5 -30 -25 -33 -30 -6 -35 -2 -35 30 0 14 -5 22
-12 19 -13 -4 -14 -10 -3 -89 7 -53 25 -66 25 -18 0 27 3 30 30 30 26 0 30 -4
30 -26 0 -16 5 -24 13 -21 12 4 13 10 2 90 -7 51 -25 65 -25 18z"/>
<path d="M1976 3407 c-20 -54 -21 -87 -1 -87 8 0 15 5 15 10 0 6 11 10 25 10
14 0 25 -4 25 -10 0 -5 7 -10 16 -10 13 0 16 7 11 38 -9 64 -24 92 -50 92 -19
0 -28 -9 -41 -43z m59 -14 c5 -20 3 -23 -19 -23 -30 0 -30 0 -14 35 12 27 22
24 33 -12z"/>
<path d="M2166 3393 c-4 -27 -9 -56 -12 -65 -4 -12 0 -18 10 -18 10 0 16 9 16
23 0 25 20 63 20 38 0 -9 7 -11 21 -8 20 5 21 3 16 -34 -4 -28 -1 -39 8 -39 8
0 15 19 19 48 4 26 9 55 12 65 7 21 -19 23 -36 2 -18 -21 -27 -19 -34 10 -11
42 -33 30 -40 -22z"/>
<path d="M1573 3390 c-21 -9 -21 -9 -5 -69 9 -35 22 -61 29 -61 9 0 11 8 7 25
-5 22 -2 27 24 36 35 12 46 33 32 60 -11 20 -49 24 -87 9z m67 -24 c0 -19 -39
-31 -53 -17 -7 7 -3 13 14 20 34 14 39 13 39 -3z"/>
<path d="M1255 3220 c8 -37 -16 -51 -44 -26 -13 12 -21 14 -26 6 -9 -15 11
-37 42 -45 14 -3 34 -16 43 -28 22 -27 38 -15 21 16 -6 12 -11 36 -9 52 2 33
-7 55 -23 55 -7 0 -8 -12 -4 -30z"/>
<path d="M1085 3121 c-4 -8 5 -25 24 -45 35 -36 38 -48 16 -66 -13 -11 -22 -7
-55 25 -40 39 -60 43 -41 7 11 -21 68 -72 79 -72 13 0 62 51 62 63 0 7 -18 32
-39 56 -26 31 -40 40 -46 32z"/>
<path d="M2840 3033 c0 -5 14 -19 31 -32 24 -18 28 -25 18 -37 -15 -18 -33
-18 -49 1 -7 8 -18 15 -24 15 -6 -1 2 -12 19 -25 28 -23 29 -26 13 -41 -15
-15 -18 -15 -48 6 -44 31 -46 20 -3 -15 l37 -29 38 45 c21 24 37 50 36 58 -3
16 -68 68 -68 54z"/>
<path d="M936 2973 c-3 -4 3 -16 14 -28 l20 -22 -20 -18 c-19 -17 -21 -17 -38
-2 -17 15 -32 14 -32 -3 0 -3 23 -23 50 -44 51 -39 78 -43 46 -7 -14 15 -15
24 -6 40 13 25 23 26 40 6 15 -18 30 -19 30 -2 0 6 -17 26 -38 43 -48 39 -58
45 -66 37z"/>
<path d="M2974 2879 c-5 -9 -2 -10 11 -5 19 7 55 -18 55 -39 0 -6 -15 -26 -34
-44 l-34 -33 -21 23 c-11 13 -21 32 -21 43 -1 20 -1 20 -11 3 -9 -15 -6 -24
17 -48 15 -16 32 -29 36 -29 5 0 28 18 51 39 l42 40 -21 28 c-23 30 -58 41
-70 22z"/>
<path d="M3085 2714 c-27 -19 -52 -39 -54 -45 -2 -6 9 -3 24 7 l28 18 -7 -42
c-3 -24 -4 -47 -1 -52 3 -5 31 7 61 27 30 20 52 38 49 41 -3 3 -25 -9 -50 -27
l-45 -32 0 45 c0 37 5 48 27 64 48 35 20 31 -32 -4z"/>
<path d="M3213 2552 c-41 -22 -75 -66 -67 -86 8 -21 75 -21 114 -1 36 19 39
28 6 19 -20 -5 -25 0 -35 27 -14 40 -14 39 4 39 8 0 15 5 15 10 0 12 2 13 -37
-8z m7 -48 c13 -33 6 -44 -31 -44 -33 0 -37 14 -13 48 20 29 32 28 44 -4z"/>
<path d="M2090 2414 c0 -3 -43 -203 -95 -443 -52 -241 -95 -441 -95 -444 0
-18 30 -4 35 16 21 88 185 859 185 867 0 5 -7 10 -15 10 -8 0 -15 -3 -15 -6z"/>
<path d="M3301 2358 c-6 -7 -29 -13 -49 -13 -36 0 -37 -1 -36 -38 2 -59 14
-64 86 -39 48 17 54 20 26 16 -34 -4 -38 -3 -38 17 0 13 10 33 22 46 22 23 12
33 -11 11z m-31 -44 c14 -36 13 -41 -11 -47 -15 -4 -23 1 -30 21 -5 14 -8 31
-5 39 9 22 36 15 46 -13z"/>
<path d="M676 2198 c-4 -23 -3 -45 1 -49 12 -11 100 -27 112 -20 5 4 14 25 19
48 l9 41 -55 11 c-78 16 -79 15 -86 -31z m120 -21 c-3 -17 -8 -33 -11 -35 -3
-3 -26 -1 -53 4 -42 8 -47 12 -44 34 5 47 7 48 62 37 51 -10 52 -11 46 -40z"/>
<path d="M1622 2097 c-67 -67 -122 -127 -122 -132 0 -6 56 -66 125 -135 99
-99 127 -122 137 -112 10 10 -12 37 -105 130 l-117 117 115 115 c107 107 123
129 99 137 -5 2 -64 -52 -132 -120z"/>
<path d="M2254 2208 c-4 -7 39 -56 110 -126 l117 -115 -117 -118 c-94 -94
-116 -121 -106 -131 10 -10 39 14 142 117 l130 130 -127 127 c-70 71 -131 128
-135 128 -4 0 -10 -5 -14 -12z"/>
<path d="M3270 2159 c-17 -6 -6 -7 34 -3 63 6 76 -1 76 -42 0 -23 -23 -33 -70
-34 -14 0 -32 -5 -40 -11 -11 -7 -1 -8 35 -4 79 10 85 13 85 45 0 51 -9 60
-54 59 -22 -1 -52 -5 -66 -10z"/>
<path d="M651 1983 l2 -48 6 40 c5 32 11 41 29 43 20 3 22 -1 23 -40 l1 -43
10 43 c7 32 14 42 29 42 16 0 19 -7 20 -47 1 -39 2 -43 9 -23 4 14 8 37 9 53
1 27 1 27 -69 27 l-70 0 1 -47z"/>
<path d="M3277 1963 c-4 -3 -7 -23 -7 -44 0 -28 5 -39 19 -44 32 -10 50 5 53
43 2 29 7 37 23 37 28 0 34 -51 8 -71 -17 -14 -17 -15 2 -12 17 3 20 11 20 48
0 43 -1 45 -30 45 -27 0 -30 -3 -33 -37 -3 -33 -7 -38 -28 -38 -20 0 -24 5
-24 30 0 17 7 33 18 39 14 9 15 10 1 11 -9 0 -19 -3 -22 -7z"/>
<path d="M692 1819 c-23 -15 -32 -28 -30 -42 3 -24 32 -35 97 -36 61 -1 45 10
-19 14 -66 3 -84 19 -50 45 14 11 43 24 65 29 l40 9 -35 1 c-20 0 -49 -8 -68
-20z"/>
<path d="M3260 1760 c-6 -12 -10 -33 -8 -48 2 -22 8 -27 32 -27 24 0 31 6 40
32 14 41 22 48 40 34 17 -14 10 -50 -13 -69 -14 -13 -14 -13 4 -10 26 4 43 61
25 83 -22 26 -54 14 -66 -25 -8 -23 -18 -35 -30 -35 -27 0 -30 39 -5 64 16 16
17 21 6 21 -8 0 -19 -9 -25 -20z"/>
<path d="M735 1635 c-38 -12 -40 -14 -38 -51 2 -21 8 -43 14 -48 9 -8 10 -3 4
19 -13 51 -11 60 12 63 17 2 23 -3 28 -27 4 -17 10 -31 15 -31 5 0 4 14 -1 32
-10 36 -11 33 19 42 16 5 22 3 22 -8 0 -19 19 -70 25 -65 2 3 -1 24 -7 47 -12
47 -22 50 -93 27z"/>
<path d="M3210 1560 c-11 -20 -9 -25 16 -47 30 -24 67 -43 87 -43 6 0 3 6 -7
13 -16 11 -17 19 -9 43 8 22 16 28 34 26 18 -2 21 0 12 9 -7 7 -37 14 -67 17
-48 4 -55 2 -66 -18z m76 -22 c-8 -42 -10 -42 -40 -23 -43 29 -32 47 33 54 10
1 12 -7 7 -31z"/>
<path d="M802 1445 l-53 -24 16 -37 c8 -20 15 -38 15 -40 0 -2 4 -4 10 -4 5 0
2 16 -7 35 -9 19 -15 37 -12 39 2 2 29 16 59 29 30 14 48 25 40 26 -8 0 -39
-11 -68 -24z"/>
<path d="M888 1273 c-41 -28 -46 -47 -22 -81 20 -29 41 -28 87 3 41 28 45 44
21 80 -20 31 -39 31 -86 -2z m76 -8 c23 -34 21 -38 -26 -65 l-41 -23 -19 23
c-25 30 -24 33 20 63 46 32 46 32 66 2z"/>
<path d="M3070 1252 c0 -6 5 -14 10 -17 6 -3 10 -17 10 -29 0 -28 -36 -42 -59
-23 -11 10 -13 9 -9 -3 3 -10 18 -15 44 -15 21 0 49 -6 62 -13 27 -15 30 -2 3
15 -11 7 -22 25 -26 42 -6 29 -35 64 -35 43z"/>
<path d="M1001 1109 c-24 -21 -42 -42 -39 -44 3 -3 11 1 18 10 17 20 33 19 55
-5 21 -24 53 -23 68 1 8 12 5 24 -12 48 -12 17 -28 31 -34 31 -7 -1 -32 -19
-56 -41z m99 -28 c0 -21 -35 -20 -57 0 -22 21 -22 23 -6 42 17 18 18 18 40 -8
13 -14 23 -30 23 -34z"/>
<path d="M2922 1077 c-34 -35 -45 -61 -13 -33 11 10 21 13 25 7 4 -5 25 -24
49 -42 l42 -33 -44 47 c-38 39 -42 48 -31 62 25 30 3 24 -28 -8z"/>
<path d="M1141 961 l-41 -49 40 -32 c46 -37 55 -29 10 9 -27 24 -28 28 -15 45
15 19 15 19 38 -2 34 -32 45 -27 13 6 -24 26 -25 30 -11 42 13 11 21 10 46 -9
17 -13 33 -21 35 -18 4 4 -60 57 -69 57 -3 0 -24 -22 -46 -49z"/>
<path d="M2783 951 c-18 -15 -33 -31 -33 -36 0 -5 5 -4 12 3 18 18 24 15 58
-28 31 -39 32 -42 14 -55 -11 -8 -15 -15 -10 -15 14 0 78 51 72 57 -3 3 -12 1
-20 -6 -11 -9 -20 -4 -46 29 -26 33 -30 43 -20 55 22 27 6 24 -27 -4z"/>
<path d="M1301 852 c-34 -53 -42 -82 -12 -42 16 20 21 22 35 11 9 -7 17 -30
18 -50 l1 -36 4 33 c3 23 9 32 23 32 11 0 25 10 31 22 10 19 8 25 -22 50 -18
15 -36 28 -40 28 -4 0 -21 -22 -38 -48z m64 16 c25 -11 34 -41 15 -53 -5 -3
-23 2 -39 11 -24 14 -28 21 -20 36 11 21 11 21 44 6z"/>
<path d="M2592 825 c6 -19 58 -115 63 -115 11 0 75 43 71 48 -3 2 -17 -3 -30
-12 -34 -22 -42 -20 -55 12 -11 26 -56 87 -49 67z"/>
<path d="M2436 731 c-3 -21 -1 -53 5 -70 12 -33 30 -44 22 -13 -3 12 4 22 22
30 34 16 45 15 45 -3 0 -8 4 -15 9 -15 15 0 -6 51 -34 83 -36 40 -61 36 -69
-12z m62 0 c19 -26 19 -29 4 -34 -9 -3 -25 -8 -34 -12 -15 -6 -18 -1 -18 34 0
49 17 54 48 12z"/>
<path d="M2323 665 c6 -30 8 -57 6 -59 -2 -3 -18 -6 -34 -8 -29 -3 -30 -1 -44
55 -7 32 -16 56 -18 53 -7 -7 17 -115 28 -121 14 -9 77 6 82 19 6 16 -14 116
-23 116 -3 0 -2 -25 3 -55z"/>
<path d="M2047 684 c-11 -11 -8 -83 3 -105 6 -10 17 -19 25 -19 7 0 16 -6 18
-12 4 -10 6 -10 6 0 1 6 8 12 16 12 23 0 31 26 25 78 -5 47 -5 47 -45 50 -23
2 -44 0 -48 -4z m81 -56 c-3 -51 -4 -53 -34 -56 -30 -3 -31 -2 -37 45 -3 26
-3 51 0 55 2 5 20 8 39 8 l35 0 -3 -52z"/>
<path d="M1665 671 c31 -13 93 -24 75 -12 -8 5 -33 12 -55 15 -27 4 -34 4 -20
-3z"/>
</g>
</svg>
