<?xml version="1.0" standalone="no"?>
<!DOCTYPE svg PUBLIC "-//W3C//DTD SVG 20010904//EN"
 "http://www.w3.org/TR/2001/REC-SVG-20010904/DTD/svg10.dtd">
<svg version="1.0" xmlns="http://www.w3.org/2000/svg"
 width="400.000000pt" height="400.000000pt" viewBox="0 0 400.000000 400.000000"
 preserveAspectRatio="xMidYMid meet">

<g transform="translate(0.000000,400.000000) scale(0.100000,-0.100000)"
fill="#000000" stroke="none">
<path d="M1976 3344 c-3 -9 -6 -32 -6 -53 0 -35 -2 -37 -45 -49 -118 -32 -227
-222 -147 -257 15 -7 22 -18 22 -36 0 -23 -5 -28 -35 -33 -24 -5 -39 -15 -45
-29 -5 -12 -19 -113 -31 -225 -23 -222 -22 -232 32 -232 22 0 29 -5 29 -20 0
-21 20 -29 20 -7 0 6 9 23 20 37 12 15 18 18 14 8 -5 -15 0 -18 29 -18 24 0
40 6 46 18 10 16 10 16 11 0 0 -16 11 -18 85 -18 47 0 85 -3 85 -6 0 -3 -10
-14 -22 -23 l-21 -18 24 1 c25 1 26 -3 14 -43 -5 -17 -4 -22 6 -19 8 3 15 16
17 31 4 34 68 69 83 46 5 -8 6 -21 3 -29 -4 -12 -3 -13 7 -2 21 20 29 14 23
-18 -5 -23 -3 -30 9 -30 8 0 18 6 20 13 3 6 6 2 6 -10 1 -15 -3 -21 -13 -17
-8 3 -17 0 -21 -6 -9 -14 -35 6 -35 28 0 12 -5 11 -23 -6 -13 -12 -34 -21 -48
-21 -13 1 -28 1 -34 -1 -28 -7 -37 1 -32 27 5 25 4 26 -9 9 -7 -10 -15 -23
-16 -28 -2 -5 -30 -10 -63 -10 -45 -1 -69 -7 -95 -25 -39 -26 -50 -28 -50 -10
0 7 -9 30 -20 51 -26 53 -22 78 -60 -384 -5 -63 -17 -204 -27 -312 l-17 -198
-81 0 c-86 0 -111 -9 -102 -34 6 -15 56 -16 519 -14 505 3 513 3 513 23 0 18
-8 20 -91 23 l-91 3 -27 322 c-15 177 -34 394 -42 481 -19 216 -20 206 15 206
54 0 56 12 32 207 -12 98 -24 195 -27 216 -6 39 -34 67 -66 67 -28 0 -24 53 4
65 79 35 -29 226 -144 256 -46 13 -48 14 -48 50 0 50 -8 69 -30 69 -10 0 -21
-7 -24 -16z m176 -394 c3 -17 2 -32 0 -35 -8 -8 -300 -6 -305 3 -3 4 -3 19 0
35 l5 27 148 0 148 0 4 -30z m-344 -277 l-3 -108 -37 -3 c-45 -4 -44 -6 -27
130 12 88 12 88 41 88 l29 0 -3 -107z m260 -5 l3 -108 -71 0 -70 0 0 103 c0
57 3 107 7 111 4 4 34 6 68 4 l60 -3 3 -107z m189 17 c17 -135 19 -127 -24
-123 l-38 3 -3 108 -3 108 28 -3 c27 -3 28 -5 40 -93z m-384 -202 c3 -5 -8 -8
-23 -8 -15 0 -26 3 -23 8 2 4 13 7 23 7 10 0 21 -3 23 -7z m352 -345 l7 -76
-53 -36 c-30 -20 -57 -36 -60 -36 -3 0 -9 26 -13 57 -4 31 -9 67 -12 79 -5 18
5 29 53 62 32 22 61 37 65 34 3 -4 9 -41 13 -84z m-185 -18 c16 -16 20 -33 20
-80 l0 -60 -60 0 -60 0 0 60 c0 65 21 100 60 100 11 0 29 -9 40 -20z m-150
-138 c0 -40 17 -52 73 -52 27 0 47 -4 45 -9 -5 -15 -245 -171 -262 -171 -9 0
5 152 16 172 9 18 105 88 120 88 5 0 8 -13 8 -28z m374 -277 c3 -38 3 -75 -1
-81 -5 -6 -36 -29 -71 -53 l-62 -42 -10 26 c-6 15 -10 29 -10 33 0 3 -14 20
-30 37 l-31 32 98 65 c54 36 101 63 104 59 4 -3 9 -37 13 -76z m-211 -113 c11
-12 19 -45 23 -95 l7 -77 -83 0 -83 0 5 75 c6 90 23 115 78 115 23 0 43 -7 53
-18z m-173 -117 c0 -42 -4 -55 -15 -56 -8 0 -37 0 -65 0 -84 0 -91 1 -85 11
10 16 138 100 152 100 9 0 13 -17 13 -55z"/>
<path d="M1780 2396 c-12 -33 -13 -63 -1 -70 9 -6 26 82 17 91 -3 3 -10 -6
-16 -21z"/>
<path d="M1967 2354 c-4 -4 -7 -14 -7 -23 0 -11 3 -12 11 -4 6 6 10 16 7 23
-2 6 -7 8 -11 4z"/>
<path d="M2111 2344 c0 -11 3 -14 6 -6 3 7 2 16 -1 19 -3 4 -6 -2 -5 -13z"/>
<path d="M1012 1053 l3 -128 33 -3 32 -3 0 50 0 51 40 0 c38 0 40 -2 40 -31 0
-47 16 -69 51 -69 l30 0 -3 128 -3 127 -35 0 c-35 0 -35 0 -38 -47 l-3 -48
-39 0 -39 0 -3 48 c-3 45 -4 47 -36 50 l-33 3 3 -128z"/>
<path d="M1292 1076 c2 -85 6 -108 22 -125 44 -49 145 -46 186 6 18 23 20 38
18 122 l-3 96 -32 3 -33 3 0 -90 c0 -68 -4 -93 -16 -105 -40 -41 -64 -10 -64
82 0 90 -10 112 -51 112 l-31 0 4 -104z"/>
<path d="M1564 1165 c-3 -8 11 -45 33 -82 22 -40 40 -87 43 -113 5 -42 7 -45
38 -48 31 -3 32 -3 32 38 0 29 10 59 34 99 45 77 50 95 31 111 -16 14 -65 6
-65 -11 0 -5 -7 -26 -15 -47 l-16 -36 -25 44 c-14 25 -31 48 -37 52 -20 13
-47 9 -53 -7z"/>
<path d="M1922 1172 c-9 -7 -12 -39 -10 -128 l3 -119 33 -3 c31 -3 32 -2 32
36 l0 39 46 6 c61 6 89 34 89 88 0 62 -36 89 -118 89 -34 0 -68 -4 -75 -8z
m111 -63 c15 -24 1 -49 -28 -49 -21 0 -25 5 -25 28 0 16 3 32 7 36 11 10 35 3
46 -15z"/>
<path d="M2162 1053 l3 -128 33 -3 32 -3 0 50 0 51 40 0 c39 0 40 -1 40 -34 0
-54 8 -66 46 -66 l34 0 0 118 c0 128 -5 142 -52 142 -27 0 -28 -2 -28 -50 l0
-50 -39 0 -40 0 -3 48 c-3 45 -4 47 -36 50 l-33 3 3 -128z"/>
<path d="M2504 1172 c-19 -12 -88 -232 -76 -244 5 -5 22 -8 38 -6 21 2 30 9
32 26 3 19 9 22 47 22 37 0 44 -3 49 -25 5 -21 12 -25 41 -25 19 0 35 4 35 9
0 19 -63 227 -72 239 -11 13 -76 16 -94 4z m61 -109 c6 -31 5 -33 -20 -33 -21
0 -26 4 -21 16 3 9 9 27 12 41 8 30 19 20 29 -24z"/>
<path d="M2722 1168 c-5 -7 -11 -65 -13 -128 l-4 -115 31 -3 c37 -4 43 10 45
103 l1 60 17 -48 c18 -53 36 -69 68 -61 14 4 25 21 36 57 l15 52 1 -45 c1 -25
4 -62 7 -82 6 -35 9 -38 40 -38 22 0 34 5 34 14 0 54 -23 223 -32 234 -6 7
-25 12 -42 10 -28 -3 -33 -9 -51 -60 -11 -32 -22 -58 -26 -58 -4 0 -12 21 -19
46 -7 25 -19 52 -27 60 -18 17 -67 18 -81 2z"/>
<path d="M772 768 c-16 -16 -15 -93 1 -105 6 -6 29 -13 49 -17 31 -6 37 -4 37
11 0 10 3 30 7 45 13 56 -55 105 -94 66z m56 -20 c17 -17 15 -53 -4 -69 -14
-11 -18 -10 -30 6 -17 23 -17 30 -4 56 12 22 21 24 38 7z"/>
<path d="M993 763 c-3 -10 -14 -39 -24 -65 -16 -42 -17 -48 -4 -48 9 0 18 7
21 15 4 8 17 15 30 15 14 0 27 -7 30 -15 4 -8 12 -15 20 -15 21 0 -26 124 -49
128 -10 2 -20 -4 -24 -15z m37 -50 c0 -7 -7 -13 -16 -13 -11 0 -14 5 -10 16 3
9 6 21 6 27 0 16 20 -14 20 -30z"/>
<path d="M1570 715 l0 -65 38 0 c49 0 62 14 62 65 0 51 -13 65 -62 65 l-38 0
0 -65z m71 21 c13 -27 -3 -66 -26 -66 -11 0 -15 12 -15 45 0 51 22 63 41 21z"/>
<path d="M1770 715 l0 -65 50 0 c55 0 69 17 18 22 -42 4 -50 28 -9 28 21 0 31
5 31 15 0 10 -10 15 -30 15 -20 0 -30 5 -30 15 0 10 11 15 35 15 19 0 35 5 35
10 0 6 -22 10 -50 10 l-50 0 0 -65z"/>
<path d="M1961 768 c0 -7 8 -35 18 -63 25 -71 48 -68 74 8 10 32 16 61 13 64
-10 10 -22 -8 -37 -52 l-13 -40 -15 48 c-8 26 -20 47 -28 47 -7 0 -13 -6 -12
-12z"/>
<path d="M2170 715 l0 -65 45 0 c25 0 45 5 45 10 0 6 -13 10 -30 10 -37 0 -41
27 -5 32 14 2 26 8 26 13 0 6 -12 11 -26 13 -36 5 -32 32 5 32 17 0 30 5 30
10 0 6 -20 10 -45 10 l-45 0 0 -65z"/>
<path d="M2360 715 l0 -65 45 0 c25 0 45 5 45 10 0 6 -13 10 -30 10 -30 0 -30
1 -30 55 0 42 -3 55 -15 55 -12 0 -15 -14 -15 -65z"/>
<path d="M2556 764 c-9 -8 -16 -31 -16 -49 0 -18 7 -41 16 -49 18 -19 65 -21
82 -4 16 16 16 90 0 106 -17 17 -64 15 -82 -4z m59 -49 c0 -33 -3 -40 -20 -40
-15 0 -21 8 -23 28 -5 39 5 59 25 55 14 -2 18 -13 18 -43z"/>
<path d="M2750 715 c0 -51 3 -65 15 -65 9 0 15 9 15 25 0 21 5 25 30 25 25 0
50 21 50 44 0 17 -37 36 -71 36 l-39 0 0 -65z m75 25 c0 -8 -10 -16 -22 -18
-18 -3 -23 2 -23 18 0 16 5 21 23 18 12 -2 22 -10 22 -18z"/>
<path d="M2950 715 l0 -65 45 0 c25 0 45 5 45 10 0 6 -13 10 -30 10 -37 0 -41
27 -5 32 14 2 26 8 26 13 0 6 -12 11 -26 13 -36 5 -32 32 5 32 17 0 30 5 30
10 0 6 -20 10 -45 10 l-45 0 0 -65z"/>
<path d="M3140 715 c0 -51 3 -65 15 -65 9 0 15 9 15 25 0 14 6 25 13 25 8 0
19 -11 25 -25 6 -14 19 -25 27 -25 12 0 13 4 6 19 -6 10 -7 35 -4 56 7 44 -4
55 -59 55 l-38 0 0 -65z m70 25 c0 -13 -7 -20 -20 -20 -13 0 -20 7 -20 20 0
13 7 20 20 20 13 0 20 -7 20 -20z"/>
<path d="M1287 714 c-12 -12 4 -24 34 -24 19 0 29 5 29 15 0 15 -50 22 -63 9z"/>
</g>
</svg>
