<?xml version="1.0" standalone="no"?>
<!DOCTYPE svg PUBLIC "-//W3C//DTD SVG 20010904//EN"
 "http://www.w3.org/TR/2001/REC-SVG-20010904/DTD/svg10.dtd">
<svg version="1.0" xmlns="http://www.w3.org/2000/svg"
 width="1638.000000pt" height="1638.000000pt" viewBox="0 0 1638.000000 1638.000000"
 preserveAspectRatio="xMidYMid meet">

<g transform="translate(0.000000,1638.000000) scale(0.100000,-0.100000)"
fill="#000000" stroke="none">
<path d="M7705 15989 c-121 -4 -267 -13 -325 -19 -58 -6 -150 -15 -205 -21
-320 -33 -742 -110 -1080 -196 -1527 -387 -2931 -1249 -3966 -2435 l-94 -108
-511 0 c-502 0 -512 0 -538 -21 -21 -17 -26 -29 -26 -64 0 -40 20 -77 211
-386 116 -188 216 -352 221 -365 9 -19 -1 -42 -75 -162 -520 -849 -878 -1825
-1041 -2832 -114 -706 -127 -1517 -36 -2235 246 -1936 1196 -3701 2680 -4976
1127 -968 2530 -1607 3980 -1813 329 -46 525 -64 862 -76 478 -17 929 7 1418
76 584 83 1227 256 1790 482 1686 676 3102 1936 3975 3537 743 1361 1064 2913
924 4470 -241 2705 -1877 5104 -4308 6320 -838 419 -1758 690 -2656 784 -55 6
-145 15 -200 21 -106 11 -606 31 -715 28 -36 0 -164 -5 -285 -9z m789 -1904
c1271 -103 2409 -569 3401 -1391 174 -144 582 -554 731 -734 221 -266 400
-519 562 -792 94 -157 202 -359 202 -376 0 -6 -78 -134 -173 -284 -291 -458
-676 -1065 -1052 -1658 -197 -311 -464 -731 -593 -935 -129 -203 -278 -439
-331 -522 -53 -84 -98 -153 -101 -153 -3 0 -220 485 -482 1078 -263 592 -608
1371 -767 1731 -159 359 -297 662 -307 672 -36 40 -140 31 -168 -14 -7 -12
-126 -220 -263 -462 -292 -514 -986 -1731 -1520 -2667 -401 -703 -400 -701
-485 -714 -45 -8 -106 23 -145 73 -17 21 -90 139 -163 263 -135 228 -565 956
-825 1395 -78 132 -434 733 -790 1335 -357 602 -732 1237 -835 1410 -102 173
-277 469 -389 658 -112 188 -201 348 -198 356 11 28 323 306 510 455 426 339
968 654 1467 854 602 241 1163 372 1825 426 177 15 690 12 889 -4z m-5452
-4385 c270 -437 563 -914 653 -1060 89 -146 438 -713 775 -1260 812 -1318
1922 -3120 2284 -3709 160 -260 301 -484 313 -497 25 -27 88 -33 115 -12 8 7
104 189 213 403 407 804 582 1148 725 1430 81 160 259 511 395 780 136 270
285 562 330 650 45 88 212 417 370 730 158 314 297 585 307 603 l20 32 120
-242 c66 -134 144 -292 173 -353 29 -60 168 -344 310 -630 141 -286 274 -557
295 -601 114 -239 324 -652 343 -672 63 -68 168 -82 253 -33 50 29 58 42 634
973 321 519 659 1065 750 1213 704 1137 1373 2220 1377 2232 12 32 24 3 62
-154 241 -1002 226 -2011 -45 -2998 -330 -1207 -1016 -2262 -1989 -3060 -551
-452 -1217 -820 -1895 -1045 -1142 -380 -2353 -409 -3520 -84 -1080 301 -2086
927 -2839 1769 -1144 1279 -1686 2972 -1495 4675 47 420 145 857 284 1265 70
206 171 456 183 452 5 -1 230 -360 499 -797z"/>
<path d="M9041 6613 c-20 -18 -69 -109 -141 -260 -60 -127 -110 -234 -110
-237 0 -3 337 -6 749 -6 l750 0 -115 238 c-63 130 -123 248 -133 262 l-18 25
-476 3 -476 2 -30 -27z"/>
</g>
</svg>
